<svg width="28" height="28" viewBox="0 0 28 28" fill="none" xmlns="http://www.w3.org/2000/svg">
<path d="M16.5 5.6665H11.5C11.0397 5.6665 10.6666 6.0396 10.6666 6.49984V8.1665C10.6666 8.62674 11.0397 8.99984 11.5 8.99984H16.5C16.9602 8.99984 17.3333 8.62674 17.3333 8.1665V6.49984C17.3333 6.0396 16.9602 5.6665 16.5 5.6665Z" stroke="#6B7280" stroke-width="2" stroke-linecap="round" stroke-linejoin="round"/>
<path d="M17.3334 7.3335H19C19.4421 7.3335 19.866 7.50909 20.1786 7.82165C20.4911 8.13421 20.6667 8.55814 20.6667 9.00016V20.6668C20.6667 21.1089 20.4911 21.5328 20.1786 21.8453C19.866 22.1579 19.4421 22.3335 19 22.3335H9.00004C8.55801 22.3335 8.13409 22.1579 7.82153 21.8453C7.50897 21.5328 7.33337 21.1089 7.33337 20.6668V9.00016C7.33337 8.55814 7.50897 8.13421 7.82153 7.82165C8.13409 7.50909 8.55801 7.3335 9.00004 7.3335H10.6667" stroke="#6B7280" stroke-width="2" stroke-linecap="round" stroke-linejoin="round"/>
</svg>
